<?xml version="1.0" encoding="UTF-8" standalone="no"?>
<!-- Generator: Adobe Illustrator 23.1.1, SVG Export Plug-In . SVG Version: 6.00 Build 0)  -->

<svg
   xmlns:dc="http://purl.org/dc/elements/1.1/"
   xmlns:cc="http://creativecommons.org/ns#"
   xmlns:rdf="http://www.w3.org/1999/02/22-rdf-syntax-ns#"
   xmlns:svg="http://www.w3.org/2000/svg"
   xmlns="http://www.w3.org/2000/svg"
   xmlns:xlink="http://www.w3.org/1999/xlink"
   xmlns:sodipodi="http://sodipodi.sourceforge.net/DTD/sodipodi-0.dtd"
   xmlns:inkscape="http://www.inkscape.org/namespaces/inkscape"
   version="1.1"
   id="Layer_1"
   x="0px"
   y="0px"
   viewBox="0 0 512 512"
   xml:space="preserve"
   sodipodi:docname="logo.svg"
   width="512"
   height="512"
   inkscape:version="0.92.4 (5da689c313, 2019-01-14)"
   inkscape:export-filename="/tmp/logo.png"
   inkscape:export-xdpi="96"
   inkscape:export-ydpi="96"><metadata
   id="metadata948"><rdf:RDF><cc:Work
       rdf:about=""><dc:format>image/svg+xml</dc:format><dc:type
         rdf:resource="http://purl.org/dc/dcmitype/StillImage" /><dc:title></dc:title></cc:Work></rdf:RDF></metadata><defs
   id="defs946" /><sodipodi:namedview
   pagecolor="#ffffff"
   bordercolor="#666666"
   borderopacity="1"
   objecttolerance="10"
   gridtolerance="10"
   guidetolerance="10"
   inkscape:pageopacity="0"
   inkscape:pageshadow="2"
   inkscape:window-width="1440"
   inkscape:window-height="2512"
   id="namedview944"
   showgrid="false"
   fit-margin-top="0"
   fit-margin-left="0"
   fit-margin-right="0"
   fit-margin-bottom="0"
   inkscape:zoom="0.66114484"
   inkscape:cx="84.465562"
   inkscape:cy="772.96349"
   inkscape:window-x="0"
   inkscape:window-y="24"
   inkscape:window-maximized="1"
   inkscape:current-layer="Layer_1" />
<style
   type="text/css"
   id="style815">
	.st0{fill:#F4F4F4;}
	.st1{fill:#050505;}
	.st2{font-family:'Gilroy-Medium';}
	.st3{font-size:10.8999px;}
	.st4{letter-spacing:1;}
	.st5{font-family:'Gilroy-SemiBold';}
	.st6{font-size:17.7073px;}
	.st7{fill:#493B3B;}
	.st8{fill:#C1A7A7;}
	.st9{fill:none;stroke:#493B3B;stroke-width:6;stroke-linecap:round;stroke-linejoin:round;stroke-miterlimit:10;}
	.st10{fill:none;stroke:#493B3B;stroke-width:4;stroke-linecap:round;stroke-linejoin:round;stroke-miterlimit:10;}
	.st11{fill:#E2A86D;}
	.st12{fill:#D6975F;}
	.st13{clip-path:url(#XMLID_7_);}
	.st14{fill:none;stroke:#CC894C;stroke-width:6;stroke-linecap:round;stroke-linejoin:round;stroke-miterlimit:10;}
	.st15{fill:#E5D6D6;}
	.st16{fill:#EFE6E6;}
	
		.st17{opacity:0.2;fill:#2D2D2D;stroke:#2D2D2D;stroke-width:8;stroke-linecap:round;stroke-linejoin:round;stroke-miterlimit:10;enable-background:new    ;}
	.st18{fill:#DBC8C8;}
	.st19{fill:#845B5B;}
	.st20{fill:#704848;}
	.st21{fill:none;stroke:#493B3B;stroke-width:3;stroke-linecap:round;stroke-linejoin:round;stroke-miterlimit:10;}
	.st22{fill:none;stroke:#493B3B;stroke-width:8;stroke-linecap:round;stroke-linejoin:round;stroke-miterlimit:10;}
	.st23{fill:#B57F7F;}
	.st24{opacity:0.34;fill:#FFFFFF;enable-background:new    ;}
	.st25{fill:#AD6D6D;}
	.st26{fill:#4C3535;}
	.st27{fill:#3F2E2E;}
	.st28{fill:#6A4949;}
	.st29{opacity:0.38;fill:#FFFFFF;enable-background:new    ;}
	.st30{fill:#443636;}
</style>












































<g
   id="g1043"
   transform="matrix(0.94464945,0,0,0.94464945,-9.5000001e-7,-77.461256)"><path
     style="fill:#c1a7a7"
     inkscape:connector-curvature="0"
     d="m 173.6,232.9 h -84 v -14 c 0,-8.8 7.2,-16 16,-16 h 52 c 8.8,0 16,7.2 16,16 z"
     class="st8"
     id="XMLID_89_" /><path
     style="fill:none;stroke:#493b3b;stroke-width:6;stroke-linecap:round;stroke-linejoin:round;stroke-miterlimit:10"
     inkscape:connector-curvature="0"
     d="m 173.6,232.9 h -84 v -14 c 0,-8.8 7.2,-16 16,-16 h 52 c 8.8,0 16,7.2 16,16 z"
     class="st9"
     id="XMLID_2_" /><g
     transform="translate(-229.9,-151.7)"
     id="XMLID_190_">
	<g
   id="XMLID_217_">
		<line
   style="fill:none;stroke:#493b3b;stroke-width:4;stroke-linecap:round;stroke-linejoin:round;stroke-miterlimit:10"
   y2="384.60001"
   x2="398.79999"
   y1="357.89999"
   x1="398.79999"
   class="st10"
   id="XMLID_218_" />
	</g>
	<g
   id="XMLID_214_">
		<line
   style="fill:none;stroke:#493b3b;stroke-width:4;stroke-linecap:round;stroke-linejoin:round;stroke-miterlimit:10"
   y2="384.60001"
   x2="389.79999"
   y1="357.89999"
   x1="389.79999"
   class="st10"
   id="XMLID_215_" />
	</g>
	<g
   id="XMLID_211_">
		<line
   style="fill:none;stroke:#493b3b;stroke-width:4;stroke-linecap:round;stroke-linejoin:round;stroke-miterlimit:10"
   y2="384.60001"
   x2="380.79999"
   y1="357.89999"
   x1="380.79999"
   class="st10"
   id="XMLID_212_" />
	</g>
	<g
   id="XMLID_208_">
		<line
   style="fill:none;stroke:#493b3b;stroke-width:4;stroke-linecap:round;stroke-linejoin:round;stroke-miterlimit:10"
   y2="384.60001"
   x2="371.79999"
   y1="357.89999"
   x1="371.79999"
   class="st10"
   id="XMLID_209_" />
	</g>
	<g
   id="XMLID_205_">
		<line
   style="fill:none;stroke:#493b3b;stroke-width:4;stroke-linecap:round;stroke-linejoin:round;stroke-miterlimit:10"
   y2="384.60001"
   x2="362.79999"
   y1="357.89999"
   x1="362.79999"
   class="st10"
   id="XMLID_206_" />
	</g>
	<g
   id="XMLID_202_">
		<line
   style="fill:none;stroke:#493b3b;stroke-width:4;stroke-linecap:round;stroke-linejoin:round;stroke-miterlimit:10"
   y2="384.60001"
   x2="353.79999"
   y1="357.89999"
   x1="353.79999"
   class="st10"
   id="XMLID_203_" />
	</g>
	<g
   id="XMLID_199_">
		<line
   style="fill:none;stroke:#493b3b;stroke-width:4;stroke-linecap:round;stroke-linejoin:round;stroke-miterlimit:10"
   y2="384.60001"
   x2="344.79999"
   y1="357.89999"
   x1="344.79999"
   class="st10"
   id="XMLID_200_" />
	</g>
	<g
   id="XMLID_196_">
		<line
   style="fill:none;stroke:#493b3b;stroke-width:4;stroke-linecap:round;stroke-linejoin:round;stroke-miterlimit:10"
   y2="384.60001"
   x2="335.79999"
   y1="357.89999"
   x1="335.79999"
   class="st10"
   id="XMLID_197_" />
	</g>
	<g
   id="XMLID_193_">
		<line
   style="fill:none;stroke:#493b3b;stroke-width:4;stroke-linecap:round;stroke-linejoin:round;stroke-miterlimit:10"
   y2="384.60001"
   x2="326.79999"
   y1="357.89999"
   x1="326.79999"
   class="st10"
   id="XMLID_194_" />
	</g>
</g><path
     style="fill:#e2a86d"
     inkscape:connector-curvature="0"
     d="M 515,197 H 193 c -8.9,0 -17.1,4.3 -22.5,11.3 -11.3,15 -29.3,24.7 -49.5,24.7 H 3 v 252 c 0,13.3 10.7,24 24,24 h 488 c 13.3,0 24,-10.7 24,-24 V 221 c 0,-13.3 -10.8,-24 -24,-24 z"
     class="st11"
     id="XMLID_53_" /><rect
     style="fill:#d6975f"
     height="204.10001"
     width="29"
     class="st12"
     y="276.70001"
     x="2.9999938"
     id="XMLID_80_" /><rect
     style="fill:#d6975f"
     height="204.10001"
     width="29"
     class="st12"
     y="276.70001"
     x="510.00003"
     id="XMLID_111_" /><g
     transform="translate(-229.9,-151.7)"
     id="g902">
	<defs
   id="defs872">
		<path
   inkscape:connector-curvature="0"
   d="m 744.9,348.7 h -322 c -8.9,0 -17.1,4.3 -22.5,11.3 -11.3,15 -29.3,24.7 -49.5,24.7 h -118 v 252 c 0,13.3 10.7,24 24,24 h 488 c 13.3,0 24,-10.7 24,-24 v -264 c 0,-13.3 -10.8,-24 -24,-24 z"
   id="XMLID_3_" />
	</defs>
	<clipPath
   id="XMLID_7_">
		<use
   height="100%"
   width="100%"
   y="0"
   x="0"
   id="use874"
   style="overflow:visible"
   xlink:href="#XMLID_3_" />
	</clipPath>
	<g
   clip-path="url(#XMLID_7_)"
   class="st13"
   id="XMLID_69_">
		<g
   id="XMLID_336_">
			<g
   id="XMLID_358_">
				<path
   style="fill:none;stroke:#cc894c;stroke-width:6;stroke-linecap:round;stroke-linejoin:round;stroke-miterlimit:10"
   inkscape:connector-curvature="0"
   d="m 280.3,407.8 c 56,33.1 81.8,97.6 64.5,153 -20.4,65.5 -90.4,84.5 -94.5,85.5"
   class="st14"
   id="XMLID_359_" />
			</g>
			<path
   style="fill:none;stroke:#cc894c;stroke-width:6;stroke-linecap:round;stroke-linejoin:round;stroke-miterlimit:10"
   inkscape:connector-curvature="0"
   d="m 300.2,575.8 c -24,26 -68.3,36.4 -108.4,16.5"
   class="st14"
   id="XMLID_357_" />
			<path
   style="fill:none;stroke:#cc894c;stroke-width:6;stroke-linecap:round;stroke-linejoin:round;stroke-miterlimit:10"
   inkscape:connector-curvature="0"
   d="m 205.3,436.3 c 60.7,5.1 106,40.7 112.5,82.5 0.3,2.2 3.1,21.6 -5.4,41.7"
   class="st14"
   id="XMLID_356_" />
			<path
   style="fill:none;stroke:#cc894c;stroke-width:6;stroke-linecap:round;stroke-linejoin:round;stroke-miterlimit:10"
   inkscape:connector-curvature="0"
   d="m 194.8,496.3 c 24,-17 46.4,-18.8 67.2,-8.7 14.6,7.2 32.7,25 30.6,38.7 -3.6,24 -44.6,52.2 -79.9,51"
   class="st14"
   id="XMLID_355_" />
			<path
   style="fill:none;stroke:#cc894c;stroke-width:6;stroke-linecap:round;stroke-linejoin:round;stroke-miterlimit:10"
   inkscape:connector-curvature="0"
   d="m 250.3,498.4 c 2.8,2.2 18,10.8 14.6,29.7 -1.1,6.2 -16.8,28.1 -43.1,23.7"
   class="st14"
   id="XMLID_354_" />
			<path
   style="fill:none;stroke:#cc894c;stroke-width:6;stroke-linecap:round;stroke-linejoin:round;stroke-miterlimit:10"
   inkscape:connector-curvature="0"
   d="m 206.8,521.8 c 13.7,-10.1 34.4,-19.7 43.5,-4.4"
   class="st14"
   id="XMLID_353_" />
			<path
   style="fill:none;stroke:#cc894c;stroke-width:6;stroke-linecap:round;stroke-linejoin:round;stroke-miterlimit:10"
   inkscape:connector-curvature="0"
   d="m 206.8,631.3 c 9.8,0.8 66.9,4.4 103.5,-36 9.5,-10.5 15.6,-21.7 19.5,-31.5"
   class="st14"
   id="XMLID_352_" />
			<path
   style="fill:none;stroke:#cc894c;stroke-width:6;stroke-linecap:round;stroke-linejoin:round;stroke-miterlimit:10"
   inkscape:connector-curvature="0"
   d="m 337.3,407.8 c 7.1,16.7 25.7,53.2 64.5,70.5 58.4,26.1 140.3,-1.2 192,-73.5"
   class="st14"
   id="XMLID_351_" />
			<path
   style="fill:none;stroke:#cc894c;stroke-width:6;stroke-linecap:round;stroke-linejoin:round;stroke-miterlimit:10"
   inkscape:connector-curvature="0"
   d="m 385.3,409.3 c 0.7,5.4 3.6,22.2 18,36 19.4,18.6 44.1,16.8 48,16.5"
   class="st14"
   id="XMLID_350_" />
			<path
   style="fill:none;stroke:#cc894c;stroke-width:6;stroke-linecap:round;stroke-linejoin:round;stroke-miterlimit:10"
   inkscape:connector-curvature="0"
   d="m 397.1,594.3 c -14,-9.1 -35,-23.9 -35,-66.1 0,-13.9 4.3,-21.7 7.6,-23.5 11.5,-6.2 48.3,35.1 95.1,47.1 36.4,9.4 96.9,-13.2 182.6,-85.7"
   class="st14"
   id="XMLID_349_" />
			<path
   style="fill:none;stroke:#cc894c;stroke-width:6;stroke-linecap:round;stroke-linejoin:round;stroke-miterlimit:10"
   inkscape:connector-curvature="0"
   d="m 676.2,415.3 c -31.4,4 -93.9,17.1 -133.5,67.5 -2.2,2.7 -26,33.3 -19.5,40.5 4.3,4.7 36.9,-46.2 98.6,-68.9 14.9,-5.5 27.9,-8 36.9,-9.3"
   class="st14"
   id="XMLID_348_" />
			<path
   style="fill:none;stroke:#cc894c;stroke-width:6;stroke-linecap:round;stroke-linejoin:round;stroke-miterlimit:10"
   inkscape:connector-curvature="0"
   d="m 301.3,674.8 c 7.3,-35.2 29.4,-59 52.5,-60 0.8,0 20,-0.6 28.5,12 10.2,15.2 1.7,45 -27,69"
   class="st14"
   id="XMLID_347_" />
			<path
   style="fill:none;stroke:#cc894c;stroke-width:6;stroke-linecap:round;stroke-linejoin:round;stroke-miterlimit:10"
   inkscape:connector-curvature="0"
   d="m 350.1,597.8 c 27.3,-2.8 51.7,11 64.3,32.9 16.1,27.7 13.4,61.2 -15.7,83.1"
   class="st14"
   id="XMLID_346_" />
			<path
   style="fill:none;stroke:#cc894c;stroke-width:6;stroke-linecap:round;stroke-linejoin:round;stroke-miterlimit:10"
   inkscape:connector-curvature="0"
   d="m 674.1,473.3 c -4.3,4.9 -26,21.3 -34.5,26.1 -44.2,25 -50.3,11.6 -94,61.1 -23.6,26.7 -44.1,91.9 -79.4,136.8"
   class="st14"
   id="XMLID_345_" />
			<path
   style="fill:none;stroke:#cc894c;stroke-width:6;stroke-linecap:round;stroke-linejoin:round;stroke-miterlimit:10"
   inkscape:connector-curvature="0"
   d="m 721.6,376.6 c -0.8,26.2 -14.7,54.9 -35.2,81.7"
   class="st14"
   id="XMLID_344_" />
			<path
   style="fill:none;stroke:#cc894c;stroke-width:6;stroke-linecap:round;stroke-linejoin:round;stroke-miterlimit:10"
   inkscape:connector-curvature="0"
   d="m 796.2,437.8 c -9.3,1.3 -63.9,10.1 -94.5,58.5 -3.9,6.1 -16.9,27.3 -18,55.5 -1.9,48.7 32.9,97 87,124.5"
   class="st14"
   id="XMLID_343_" />
			<path
   style="fill:none;stroke:#cc894c;stroke-width:6;stroke-linecap:round;stroke-linejoin:round;stroke-miterlimit:10"
   inkscape:connector-curvature="0"
   d="m 724,583.9 c 8.8,31.1 40.5,56.4 79.7,65.5"
   class="st14"
   id="XMLID_342_" />
			<path
   style="fill:none;stroke:#cc894c;stroke-width:6;stroke-linecap:round;stroke-linejoin:round;stroke-miterlimit:10"
   inkscape:connector-curvature="0"
   d="m 797.7,494.8 c -32.2,6 -65.5,26.5 -73.4,53.3 -1.7,5.7 -2.6,11.4 -2.7,17"
   class="st14"
   id="XMLID_341_" />
			<path
   style="fill:none;stroke:#cc894c;stroke-width:6;stroke-linecap:round;stroke-linejoin:round;stroke-miterlimit:10"
   inkscape:connector-curvature="0"
   d="m 569.7,697.3 c 12.5,-71.9 52.6,-107.4 74.2,-121.6 22.2,-14.5 46.2,-8.5 24.7,31.6 -15.2,28.4 0.9,69 -33,94.5"
   class="st14"
   id="XMLID_340_" />
			<path
   style="fill:none;stroke:#cc894c;stroke-width:6;stroke-linecap:round;stroke-linejoin:round;stroke-miterlimit:10"
   inkscape:connector-curvature="0"
   d="m 808.2,526.3 c -37.2,5.5 -58.8,25.5 -57,39 1.5,11.1 19.2,20.5 40.5,24"
   class="st14"
   id="XMLID_339_" />
			<path
   style="fill:none;stroke:#cc894c;stroke-width:6;stroke-linecap:round;stroke-linejoin:round;stroke-miterlimit:10"
   inkscape:connector-curvature="0"
   d="m 652.2,548.8 c 4.4,-17.4 15.9,-52.5 46.5,-85.5 34,-36.7 72.7,-50.5 90,-55.5"
   class="st14"
   id="XMLID_338_" />
			<path
   style="fill:none;stroke:#cc894c;stroke-width:6;stroke-linecap:round;stroke-linejoin:round;stroke-miterlimit:10"
   inkscape:connector-curvature="0"
   d="m 624.7,636.4 c -1.9,-18 5.7,-31.8 15.3,-34 1.7,-0.4 12.2,-1.3 12.2,12.4"
   class="st14"
   id="XMLID_337_" />
		</g>
	</g>
</g><g
     transform="translate(-229.9,-151.7)"
     id="XMLID_120_">
	<path
   style="fill:#e5d6d6"
   inkscape:connector-curvature="0"
   d="M 390.1,615.9 440.4,593.7 421,549.8 370.7,572 c -12.1,5.4 -17.6,19.5 -12.3,31.6 v 0 c 5.4,12.2 19.6,17.6 31.7,12.3 z"
   class="st15"
   id="XMLID_117_" />
	<path
   style="fill:none;stroke:#493b3b;stroke-width:6;stroke-linecap:round;stroke-linejoin:round;stroke-miterlimit:10"
   inkscape:connector-curvature="0"
   d="M 390.1,615.9 440.4,593.7 421,549.8 370.7,572 c -12.1,5.4 -17.6,19.5 -12.3,31.6 v 0 c 5.4,12.2 19.6,17.6 31.7,12.3 z"
   class="st9"
   id="XMLID_106_" />
	<circle
   style="fill:#efe6e6"
   r="14.4"
   cy="593.90002"
   cx="380.39999"
   class="st16"
   id="XMLID_119_" />
	<circle
   style="fill:none;stroke:#493b3b;stroke-width:4;stroke-linecap:round;stroke-linejoin:round;stroke-miterlimit:10"
   r="14.4"
   cy="593.90002"
   cx="380.39999"
   class="st10"
   id="XMLID_110_" />
</g><path
     style="fill:#e5d6d6"
     inkscape:connector-curvature="0"
     d="m 3,480.8 v 4.1 c 0,13.3 10.7,24 24,24 h 488 c 13.3,0 24,-10.7 24,-24 v -4.1 z"
     class="st15"
     id="XMLID_55_" /><path
     style="opacity:0.2;fill:#2d2d2d;stroke:#2d2d2d;stroke-width:8;stroke-linecap:round;stroke-linejoin:round;stroke-miterlimit:10;enable-background:new"
     inkscape:connector-curvature="0"
     d="m 271,279.6 c -62.7,0 -113.5,51 -113.5,113.8 0,8 0.8,15.8 2.4,23.4 l -19.1,8.4 c -12.1,5.4 -17.6,19.5 -12.3,31.6 v 0 c 5.4,12.1 19.5,17.6 31.6,12.3 l 19.2,-8.5 c 20.6,28.3 54,46.6 91.6,46.6 62.7,0 113.5,-51 113.5,-113.8 C 384.5,330.6 333.7,279.6 271,279.6 Z"
     class="st17"
     id="XMLID_147_" /><path
     style="fill:#dbc8c8"
     inkscape:connector-curvature="0"
     d="m 515,509 h -5 v -28.1 h 29 v 4.1 c 0,13.2 -10.8,24 -24,24 z"
     class="st18"
     id="XMLID_153_" /><path
     style="fill:#dbc8c8"
     inkscape:connector-curvature="0"
     d="m 27,509 h 5 V 480.9 H 3 v 4.1 c 0,13.2 10.7,24 24,24 z"
     class="st18"
     id="XMLID_133_" /><path
     style="fill:#e5d6d6"
     inkscape:connector-curvature="0"
     d="M 515,196.7 H 193 c -8.9,0 -17.2,4.3 -22.5,11.4 -11.3,15.1 -29.3,24.8 -49.5,24.8 H 3 v 43.8 h 536 v -55.9 c 0,-13.3 -10.8,-24.1 -24,-24.1 z"
     class="st15"
     id="XMLID_54_" /><rect
     style="fill:#dbc8c8"
     height="42.799999"
     width="29"
     class="st18"
     y="233.90001"
     x="2.9999938"
     id="XMLID_4_" /><path
     style="fill:#c1a7a7"
     inkscape:connector-curvature="0"
     d="m 370.2,260.9 h -335 c -1.8,0 -3.3,-1.5 -3.3,-3.3 v 0 c 0,-1.8 1.5,-3.3 3.3,-3.3 h 335 c 1.8,0 3.3,1.5 3.3,3.3 v 0 c 0,1.8 -1.5,3.3 -3.3,3.3 z"
     class="st8"
     id="XMLID_166_" /><path
     style="fill:#dbc8c8"
     inkscape:connector-curvature="0"
     d="m 514.9,196.7 h -5 v 80 h 29 v -56 c 0,-13.2 -10.7,-24 -24,-24 z"
     class="st18"
     id="XMLID_142_" /><ellipse
     style="fill:#e5d6d6"
     ry="113.8"
     rx="113.5"
     cy="376.5"
     cx="271"
     class="st15"
     id="XMLID_22_" /><circle
     style="fill:#845b5b"
     r="91"
     cy="376.5"
     cx="271"
     class="st19"
     id="XMLID_90_" /><path
     style="fill:#704848"
     inkscape:connector-curvature="0"
     d="m 271,305.5 c 46.8,0 85.5,35.5 90.4,81 0.4,-3.3 0.6,-6.6 0.6,-10 0,-50.2 -40.8,-91 -91,-91 -50.2,0 -91,40.8 -91,91 0,3.4 0.2,6.7 0.6,10 4.9,-45.5 43.6,-81 90.4,-81 z"
     class="st20"
     id="XMLID_126_" /><path
     style="fill:none;stroke:#493b3b;stroke-width:6;stroke-linecap:round;stroke-linejoin:round;stroke-miterlimit:10"
     inkscape:connector-curvature="0"
     d="M 515,197 H 193 c -8.9,0 -17.1,4.3 -22.5,11.3 -11.3,15 -29.3,24.7 -49.5,24.7 H 3 v 252 c 0,13.3 10.7,24 24,24 h 488 c 13.3,0 24,-10.7 24,-24 V 221 c 0,-13.3 -10.8,-24 -24,-24 z"
     class="st9"
     id="XMLID_52_" /><circle
     style="fill:none;stroke:#493b3b;stroke-width:3;stroke-linecap:round;stroke-linejoin:round;stroke-miterlimit:10"
     r="102.5"
     cy="376.5"
     cx="271"
     class="st21"
     id="XMLID_24_" /><circle
     style="fill:none;stroke:#493b3b;stroke-width:8;stroke-linecap:round;stroke-linejoin:round;stroke-miterlimit:10"
     r="91"
     cy="376.5"
     cx="271"
     class="st22"
     id="XMLID_25_" /><circle
     style="fill:#b57f7f"
     r="62"
     cy="376.5"
     cx="271"
     class="st23"
     id="XMLID_82_" /><path
     style="opacity:0.34000017;fill:#ffffff;enable-background:new"
     inkscape:connector-curvature="0"
     d="m 313.7,376.5 c 30,0 46.5,35 27.3,58 -16.7,20.1 -41.9,33 -70,33 -28.1,0 -53.3,-12.8 -70,-33 -19.2,-23.1 -2.6,-58 27.3,-58 z"
     class="st24"
     id="XMLID_91_" /><path
     style="fill:#ad6d6d"
     inkscape:connector-curvature="0"
     d="m 271,334.5 c 30.8,0 56.4,22.6 61.2,52 0.5,-3.3 0.8,-6.6 0.8,-10 0,-34.2 -27.8,-62 -62,-62 -34.2,0 -62,27.8 -62,62 0,3.4 0.3,6.7 0.8,10 4.8,-29.5 30.4,-52 61.2,-52 z"
     class="st25"
     id="XMLID_108_" /><circle
     style="fill:none;stroke:#493b3b;stroke-width:6;stroke-linecap:round;stroke-linejoin:round;stroke-miterlimit:10"
     r="62"
     cy="376.5"
     cx="271"
     class="st9"
     id="XMLID_27_" /><circle
     style="fill:#4c3535;stroke-width:1.00001526"
     r="37.000565"
     cy="327.83023"
     cx="-328.22458"
     class="st26"
     transform="rotate(-80.781636)"
     id="XMLID_84_" /><circle
     style="fill:none;stroke:#493b3b;stroke-width:3.00004578;stroke-linecap:round;stroke-linejoin:round;stroke-miterlimit:10"
     r="37.000565"
     cy="327.83023"
     cx="-328.22458"
     class="st21"
     transform="rotate(-80.781636)"
     id="XMLID_37_" /><circle
     style="fill:#3f2e2e;stroke-width:1.00001526"
     r="23.500359"
     cy="327.83023"
     cx="-328.22458"
     class="st27"
     transform="rotate(-80.781636)"
     id="XMLID_85_" /><path
     style="fill:#6a4949"
     inkscape:connector-curvature="0"
     d="M 78.4,232.9 H 26.1 v -10 c 0,-3.3 2.7,-6 6,-6 h 40.3 c 3.3,0 6,2.7 6,6 z"
     class="st28"
     id="XMLID_150_" /><path
     style="fill:none;stroke:#493b3b;stroke-width:6;stroke-linecap:round;stroke-linejoin:round;stroke-miterlimit:10"
     inkscape:connector-curvature="0"
     d="M 78.4,232.9 H 26.1 v -10 c 0,-3.3 2.7,-6 6,-6 h 40.3 c 3.3,0 6,2.7 6,6 z"
     class="st9"
     id="XMLID_20_" /><rect
     style="fill:none;stroke:#493b3b;stroke-width:6;stroke-linecap:round;stroke-linejoin:round;stroke-miterlimit:10"
     height="11.9"
     width="36"
     class="st9"
     y="205.00002"
     x="34.300011"
     id="XMLID_29_" /><rect
     style="fill:#493b3b"
     height="11.9"
     width="36"
     class="st7"
     y="205.00002"
     x="34.300011"
     id="XMLID_115_" /><ellipse
     style="fill:none;stroke:#493b3b;stroke-width:8;stroke-linecap:round;stroke-linejoin:round;stroke-miterlimit:10"
     ry="113.8"
     rx="113.5"
     cy="376.5"
     cx="271"
     class="st22"
     id="XMLID_79_" /><path
     style="opacity:0.38000039;fill:#ffffff;enable-background:new"
     inkscape:connector-curvature="0"
     d="m 271,353 c -13,0 -23.5,10.5 -23.5,23.5 0,0.1 0,0.1 0,0.2 3.1,-2.6 7.7,-4 13.8,-3.5 6.1,0.5 7.2,2.4 14,4.4 6,1.7 13.7,1.1 19.2,-1.6 -0.3,-12.8 -10.7,-23 -23.5,-23 z"
     class="st29"
     id="XMLID_98_" /><circle
     style="fill:none;stroke:#493b3b;stroke-width:3;stroke-linecap:round;stroke-linejoin:round;stroke-miterlimit:10"
     r="76"
     cy="376.5"
     cx="271"
     class="st21"
     id="XMLID_26_" /><circle
     style="fill:none;stroke:#493b3b;stroke-width:8;stroke-linecap:round;stroke-linejoin:round;stroke-miterlimit:10"
     r="91"
     cy="376.5"
     cx="271"
     class="st22"
     id="XMLID_86_" /><path
     style="fill:#443636"
     inkscape:connector-curvature="0"
     d="m 484.5,268.7 h -85.7 c -6.5,0 -11.8,-5.3 -11.8,-11.8 v -34.2 c 0,-6.5 5.3,-11.8 11.8,-11.8 h 85.7 c 6.5,0 11.8,5.3 11.8,11.8 v 34.2 c 0,6.5 -5.3,11.8 -11.8,11.8 z"
     class="st30"
     id="XMLID_114_" /><path
     style="fill:none;stroke:#493b3b;stroke-width:4;stroke-linecap:round;stroke-linejoin:round;stroke-miterlimit:10"
     inkscape:connector-curvature="0"
     d="m 484.5,268.7 h -85.7 c -6.5,0 -11.8,-5.3 -11.8,-11.8 v -34.2 c 0,-6.5 5.3,-11.8 11.8,-11.8 h 85.7 c 6.5,0 11.8,5.3 11.8,11.8 v 34.2 c 0,6.5 -5.3,11.8 -11.8,11.8 z"
     class="st10"
     id="XMLID_151_" /><path
     style="fill:#845b5b"
     inkscape:connector-curvature="0"
     d="m 477,262.7 h -70.7 c -5.5,0 -10,-4.5 -10,-10 v -25.8 c 0,-5.5 4.5,-10 10,-10 H 477 c 5.5,0 10,4.5 10,10 v 25.8 c 0,5.6 -4.5,10 -10,10 z"
     class="st19"
     id="XMLID_149_" /><path
     style="opacity:0.38000039;fill:#ffffff;enable-background:new"
     inkscape:connector-curvature="0"
     d="m 459.7,262.7 27.2,-37.2 c -0.7,-4.8 -4.8,-8.6 -9.9,-8.6 h -3.2 l -33.4,45.8 z"
     class="st29"
     id="XMLID_395_" /><polygon
     transform="translate(-229.9,-151.7)"
     style="opacity:0.38000039;fill:#ffffff;enable-background:new"
     points="696.4,368.6 690.5,368.6 657.1,414.4 663,414.4 "
     class="st29"
     id="XMLID_394_" /></g>
</svg>