<?xml version="1.0" standalone="no"?>
<!DOCTYPE svg PUBLIC "-//W3C//DTD SVG 20010904//EN"
 "http://www.w3.org/TR/2001/REC-SVG-20010904/DTD/svg10.dtd">
<svg version="1.0" xmlns="http://www.w3.org/2000/svg"
 width="700.000000pt" height="700.000000pt" viewBox="0 0 700.000000 700.000000"
 preserveAspectRatio="xMidYMid meet">
<metadata>
Created by potrace 1.11, written by Peter Selinger 2001-2013
</metadata>
<g transform="translate(0.000000,700.000000) scale(0.100000,-0.100000)"
fill="#000000" stroke="none">
<path d="M2432 5550 c-65 -10 -167 -58 -205 -98 l-29 -30 -46 27 -47 26 -405
0 c-399 0 -406 0 -446 -22 -53 -28 -107 -91 -122 -142 -7 -21 -12 -79 -12
-130 l0 -91 -35 0 -35 0 0 60 c0 75 -18 112 -65 134 -35 17 -35 18 -35 79 0
36 -5 68 -12 75 -9 9 -81 12 -265 12 -289 0 -273 5 -273 -94 0 -53 -1 -56 -35
-72 -47 -22 -65 -59 -65 -134 l0 -60 -139 0 c-105 0 -141 -3 -150 -14 -8 -10
-11 -452 -9 -1692 l3 -1679 26 -55 c51 -108 148 -180 270 -200 89 -14 6309
-14 6398 0 122 20 219 92 270 200 l26 55 0 1795 0 1795 -27 57 c-49 105 -149
178 -269 198 -76 12 -4183 12 -4267 0z m4309 -95 c62 -21 109 -63 144 -126
l30 -54 3 -397 3 -396 -1298 0 -1298 1 -90 48 c-117 62 -219 105 -325 134
l-85 24 486 0 c525 1 515 0 507 53 l-3 23 -2189 3 c-1610 1 -2192 -1 -2202 -9
-18 -15 -18 -34 2 -53 14 -14 154 -16 1382 -17 l1367 0 -85 -24 c-107 -30
-209 -72 -325 -135 l-90 -48 -1298 -1 -1297 0 0 264 0 264 818 3 817 3 75 23
c167 52 325 156 429 285 58 72 113 113 176 133 32 10 492 13 2171 13 1886 1
2136 -1 2175 -14z m-3036 -860 c531 -80 962 -442 1130 -948 48 -146 66 -243
72 -397 28 -702 -460 -1312 -1157 -1446 -128 -24 -371 -24 -495 0 -583 113
-1007 526 -1137 1107 -32 145 -32 426 0 571 115 523 490 929 991 1073 186 54
407 68 596 40z m-1685 -2117 c76 -52 97 -123 58 -198 -17 -34 -35 -51 -71 -69
-55 -27 -95 -24 -148 12 -95 63 -87 211 13 260 48 24 109 21 148 -5z m528
-682 c127 -102 269 -183 412 -237 l75 -28 -1366 -1 c-1498 0 -1414 -3 -1490
59 -52 43 -91 121 -97 197 l-5 64 1202 0 1202 0 67 -54z m4369 -12 c-7 -77
-44 -152 -96 -195 -76 -62 8 -59 -1490 -58 -1326 0 -1365 1 -1316 18 143 52
300 140 425 240 l75 60 1204 0 1204 1 -6 -66z"/>
<path d="M5064 5341 c-18 -11 -45 -36 -60 -57 l-29 -37 -3 -261 c-2 -165 1
-274 7 -297 15 -51 48 -88 95 -110 38 -17 78 -19 630 -19 581 0 590 0 634 21
26 13 54 38 70 62 l27 40 3 264 c3 299 -2 324 -74 379 l-37 29 -616 3 c-593 2
-617 1 -647 -17z"/>
<path d="M3270 4523 c-111 -19 -274 -74 -375 -125 -591 -301 -872 -965 -679
-1605 13 -45 51 -135 84 -200 187 -372 537 -638 947 -720 121 -24 385 -24 506
0 172 35 342 105 489 203 301 200 508 510 580 868 26 130 28 352 5 482 -102
564 -545 1004 -1106 1098 -118 20 -335 19 -451 -1z m492 -54 c511 -103 902
-498 1015 -1022 25 -116 25 -390 -1 -507 -89 -410 -351 -743 -722 -920 -283
-134 -632 -158 -944 -64 -440 133 -784 515 -886 984 -26 119 -26 390 -1 510
53 248 163 460 331 637 312 330 763 473 1208 382z"/>
<path d="M3365 4420 c-515 -60 -936 -431 -1061 -934 -34 -138 -43 -341 -20
-481 19 -113 62 -248 111 -350 168 -345 512 -604 892 -670 109 -19 316 -19
424 0 382 66 727 325 894 670 311 641 20 1407 -639 1680 -173 72 -419 107
-601 85z"/>
</g>
</svg>
